<svg xmlns="http://www.w3.org/2000/svg" width="2560" height="2560" version="1.0" viewBox="0 0 1920 1920"><path d="M287.3 661c-8.9 1.8-17.6 7.7-22.7 15.5-6.8 10.2-6.6 6.2-6.6 115.7V891h9.8c32.7 0 54.6 10.4 69.3 32.8 25.9 39.5 7 91.9-38.6 106.8-6.9 2.3-10.3 2.7-24.2 3.2l-16.3.5v99.1c0 87.7.2 99.9 1.6 104.7 3.5 12.1 12.4 21.3 24.1 24.9 6.5 2 7.1 2 665.3 2 656.5 0 658.8 0 665.1-2 8.3-2.6 15.1-7.7 19.4-14.5 6.7-10.3 6.5-8 6.5-100 0-89.7 0-88.7-5.4-97.9-5-8.5-18.1-17.6-25.5-17.6-1.1 0-5-1-8.7-2.1-40-12.3-61-54.4-46.6-93.3 8.5-23 28.6-39.7 54.3-45.1 13.6-2.9 22.8-9.8 28.2-21.3l3.2-6.7v-176l-3.2-6.7c-4-8.4-9.7-14.1-18.1-18.1l-6.7-3.2-660-.1c-363-.1-661.9.2-664.2.6zm953.7 44v6h14.9l.3-5.8.3-5.7h344l.3 77 .2 77.1-9.6 2.7c-63.8 17.9-97.8 86.3-73.4 147.4 13 32.5 42.2 57.9 75.9 66l7.1 1.7V1226l-172.2-.2-172.3-.3-.3-10.8-.3-10.7H1241v22H297v-153l-3.7-.1c-2.8-.1-1.5-.6 4.9-1.9 10.8-2.3 14.2-3.3 24.3-7.7 27.9-12.1 51.3-38.3 60.4-67.6 18.4-59.8-15.8-122.5-76.1-139.4l-9.8-2.7V777c0-42.2.3-77 .7-77.3.3-.4 212.7-.7 472-.7H1241v6z"/><path d="M1241 750v13h15v-26h-15v13zM1323 762c0 2 .7 2 74.5 2s74.5 0 74.5-2-.7-2-74.5-2-74.5 0-74.5 2zM1323 775v4h149v-8h-149v4zM1323 795v12h149v-24h-149v12zM1241.2 801.7l.3 12.8 7.3.3 7.2.3V789h-15.1l.3 12.7zM1323 818c0 2 .7 2 74.5 2s74.5 0 74.5-2-.7-2-74.5-2-74.5 0-74.5 2zM1323 830c0 2 .7 2 74.5 2s74.5 0 74.5-2-.7-2-74.5-2-74.5 0-74.5 2zM1323 842v4h149v-8h-149v4zM1241.2 853.7l.3 12.8 7.3.3 7.2.3V841h-15.1l.3 12.7zM714 849.1c-19.6 2.3-31.9 12.8-37.8 32.2-2.3 7.7-3.1 129.4-.8 142.4 4 23.2 18.3 36.1 42 37.9 19.7 1.5 37.5-6 45.2-19.1 6-10.3 6.7-14.2 7.2-38.8l.4-22.8-15.4.3-15.3.3-.5 20.7c-.5 18.9-.7 20.9-2.6 23.5-6.4 8.7-21.5 8.3-26.9-.8-1.9-3.3-2-5.5-2.3-67.4-.2-46.8 0-65.1.9-68.3 2.2-8.1 10.9-12.7 19.5-10.3 4.7 1.3 6.4 2.6 9 6.6 1.6 2.5 2 5.3 2.4 19.5l.5 16.5 15.4.3 15.3.3-.4-19.3c-.4-17.6-.7-19.9-3-25.9-4.5-12.2-12.8-20.6-24.5-25.2-3.4-1.3-19.4-4-21.3-3.6-.3.1-3.4.5-7 1zM503 866.5V881h34v178h33V881h34v-29H503v14.5zM619.2 955.2l.3 103.3 16.3.3 16.2.2V852h-33l.2 103.2zM790 955.5V1059h32V994.3l6.5-13.3c3.6-7.3 6.8-13.1 7-12.8.3.2 6.5 20.6 13.8 45.4l13.4 44.9 17.2.3c16.1.2 17.2.1 16.7-1.5-3-9.9-37.7-126-38.2-127.7-.4-1.7 4.6-12.4 18.5-39.6 10.5-20.6 19.1-37.5 19.1-37.7 0-.2-7.3-.3-16.3-.3h-16.3l-19.9 42.1c-10.9 23.1-20.2 42.2-20.7 42.5-.4.3-.8-18.6-.8-42V852h-32v103.5zM912 955.5V1059h89v-30h-56v-63l22.3-.2 22.2-.3.3-14.8.3-14.7H945v-55h56v-29h-89v103.5zM1011 866.5V881h34v178h33V881h34v-29h-101v14.5zM1323 853c0 .7 25.5 1 74.5 1s74.5-.3 74.5-1-25.5-1-74.5-1-74.5.3-74.5 1zM1323 864.5v2.5l74.3-.2 74.2-.3.3-2.3.3-2.2H1323v2.5zM1323 882v4h149v-8h-149v4zM1241 905.5V918h15v-25h-15v12.5zM1323 897.5v2.5h149.1l-.3-2.3-.3-2.2-74.2-.3-74.3-.2v2.5zM1323 914v9h149v-18h-149v9zM1241.7 944.7c-.4.3-.7 6.2-.7 13V970h15v-26h-6.8c-3.8 0-7.2.3-7.5.7zM1323 948v4h149.1l-.3-3.8-.3-3.7-74.2-.3-74.3-.2v4zM1323 960c0 2 .7 2 74.5 2s74.5 0 74.5-2-.7-2-74.5-2-74.5 0-74.5 2zM1396.8 976.8c-73 .2-73.8.2-73.8 2.2s.7 2 74.5 2c73.1 0 74.5 0 74.5-1.9 0-1.1-.3-2.1-.7-2.3-.5-.2-34-.2-74.5 0zM1323 991v4h149v-8h-149v4zM1241.7 996.7c-.4.3-.7 6.2-.7 13v12.3h15v-26h-6.8c-3.8 0-7.2.3-7.5.7zM1323 1010c0 2 .7 2 74.5 2s74.5 0 74.5-2-.7-2-74.5-2-74.5 0-74.5 2zM1323 1020.5v2.5h149v-5h-149v2.5zM1323 1036v9h149v-18h-149v9zM1241 1061v13h15v-26h-15v13zM1323 1056v4h149.1l-.3-3.8-.3-3.7-74.2-.3-74.3-.2v4zM1323 1069c0 2 .7 2 74.5 2s74.5 0 74.5-2-.7-2-74.5-2-74.5 0-74.5 2zM1323 1092.5v6.5l74.3-.2 74.2-.3.3-6.3.3-6.2H1323v6.5zM1241 1113v13h15v-26h-15v13zM1323 1110c0 2 .7 2 74.5 2s74.5 0 74.5-2-.7-2-74.5-2-74.5 0-74.5 2zM1323 1120c0 2 .7 2 74.5 2s74.5 0 74.5-2-.7-2-74.5-2-74.5 0-74.5 2zM1323 1136c0 2 .7 2 74.5 2s74.5 0 74.5-2-.7-2-74.5-2-74.5 0-74.5 2zM1323 1151v4h149v-8h-149v4zM1241 1165v13h15v-26h-15v13z"/></svg>